<svg xmlns="http://www.w3.org/2000/svg" xmlns:xlink="http://www.w3.org/1999/xlink" width="375" height="84" viewBox="0 0 375 84">
  <defs>
    <clipPath id="clip-path">
      <rect width="18.793" height="20" fill="none"/>
    </clipPath>
    <clipPath id="clip-path-2">
      <rect width="16.704" height="20" fill="none"/>
    </clipPath>
  </defs>
  <g id="Navigation" transform="translate(-2375 -728)">
    <path id="BG" d="M0-44H375V40H0Z" transform="translate(2375 772)" fill="#fff"/>
    <g id="Icon_User" transform="translate(2667 756)" clip-path="url(#clip-path)">
      <path id="Path_5" data-name="Path 5" d="M18.7,16.84l-.52-2.44a4.858,4.858,0,0,0-2.2-3.12L12.9,9.36a4.108,4.108,0,0,0,.84-2.2l.24-2.28A4.34,4.34,0,0,0,9.624,0h-.48A4.457,4.457,0,0,0,4.7,4.92l.24,2.28a4.773,4.773,0,0,0,.84,2.2L2.7,11.32A4.907,4.907,0,0,0,.544,14.4l-.52,2.44A2.637,2.637,0,0,0,2.584,20h13.56A2.6,2.6,0,0,0,18.7,16.84ZM7.3,2.8A2.451,2.451,0,0,1,9.144,2h.48a2.451,2.451,0,0,1,1.84.8,2.339,2.339,0,0,1,.6,1.88l-.24,2.28a2.453,2.453,0,0,1-4.88,0L6.7,4.68A2.339,2.339,0,0,1,7.3,2.8Zm9.32,14.96a.605.605,0,0,1-.48.24H2.584a.684.684,0,0,1-.48-.24.631.631,0,0,1-.12-.52L2.5,14.8A2.823,2.823,0,0,1,3.784,13l3.64-2.28a4.5,4.5,0,0,0,1.92.44,4.369,4.369,0,0,0,1.92-.44L14.9,13a2.928,2.928,0,0,1,1.28,1.8l.52,2.44A.429.429,0,0,1,16.624,17.76Z" transform="translate(0.026)" fill="#111"/>
      <path id="Path_6" data-name="Path 6" d="M28.5,38h-2a.99.99,0,0,1-1-1h0a.99.99,0,0,1,1-1h2a.99.99,0,0,1,1,1h0A.99.99,0,0,1,28.5,38Z" transform="translate(-15.289 -21.6)" fill="#00c569"/>
    </g>
    <g id="Cart">
      <circle id="Dot" cx="1.5" cy="1.5" r="1.5" transform="translate(2558 780)"/>
      <text id="Cart-2" data-name="Cart" transform="translate(2560 772)" font-size="14" font-family="SFProDisplay-Bold, SF Pro Display" font-weight="700"><tspan x="-13.836" y="0">Cart</tspan></text>
    </g>
    <g id="Icon_Explore" transform="translate(2439 756)" clip-path="url(#clip-path-2)">
      <path id="Path_7" data-name="Path 7" d="M4.913-.01A5.236,5.236,0,0,0,0,4.986,5.094,5.094,0,0,0,1.6,8.9a1,1,0,0,0,1.639-.48h0a1.023,1.023,0,0,0-.24-.959A3.047,3.047,0,0,1,2,5.146a3.279,3.279,0,0,1,3-3.158,3.192,3.192,0,0,1,3.2,2.118,1.048,1.048,0,0,0,.719.64h.08A1,1,0,0,0,10.07,3.427,5.153,5.153,0,0,0,4.913-.01Z" transform="translate(0.005 0.017)" fill="#00c569"/>
      <path id="Path_8" data-name="Path 8" d="M22.4,16.593,11.932,10.478a1.031,1.031,0,0,0-1.119.04.974.974,0,0,0-.44,1l1.639,12.031a1.021,1.021,0,0,0,1.6.719.7.7,0,0,0,.2-.16l2.878-3.038,3.118,4.676a1.009,1.009,0,0,0,1.679-1.119l-3.118-4.636,3.877-1.519a.874.874,0,0,0,.2-.12A1.029,1.029,0,0,0,22.4,16.593Zm-3.078.879-2.4.919a4.368,4.368,0,0,0-.6.32,2.752,2.752,0,0,0-.52.44l-1.8,1.879a.219.219,0,0,1-.36-.12l-1-7.314c-.04-.16.16-.28.32-.2l6.355,3.717C19.487,17.193,19.487,17.433,19.327,17.473Z" transform="translate(-6.215 -6.194)" fill="#111"/>
    </g>
  </g>
</svg>
